<?xml version="1.0" standalone="no"?>
<!DOCTYPE svg PUBLIC "-//W3C//DTD SVG 20010904//EN"
 "http://www.w3.org/TR/2001/REC-SVG-20010904/DTD/svg10.dtd">
<svg version="1.0" xmlns="http://www.w3.org/2000/svg"
 width="980.000000pt" height="496.000000pt" viewBox="0 0 980.000000 496.000000"
 preserveAspectRatio="xMidYMid meet">

<g transform="translate(0.000000,496.000000) scale(0.100000,-0.100000)"
fill="#000000" stroke="none">
<path d="M3930 4935 c-107 -22 -636 -163 -760 -202 -104 -34 -120 -42 -166
-88 -37 -37 -53 -62 -62 -98 -14 -54 -9 -83 24 -147 28 -53 50 -78 173 -189
88 -80 92 -85 69 -94 -12 -5 -128 -26 -256 -48 l-234 -38 -591 389 -592 389
-410 -29 c-443 -32 -816 -64 -933 -82 -53 -8 -82 -18 -103 -35 -41 -35 -78
-101 -85 -154 -5 -39 -1 -54 34 -121 135 -256 1020 -1477 1409 -1945 325 -390
465 -503 747 -602 275 -97 589 -152 1096 -191 321 -25 369 -31 376 -42 7 -11
-42 -102 -269 -498 -402 -701 -441 -777 -432 -829 9 -55 60 -138 103 -166 50
-33 162 -61 335 -82 115 -14 221 -18 562 -18 470 0 505 4 644 70 357 170 1137
870 1676 1505 49 58 90 107 91 109 3 3 76 9 969 71 614 43 920 70 1075 95 850
139 1441 711 1373 1328 -29 252 -159 479 -388 675 -180 154 -396 278 -641 367
-79 29 -122 53 -199 110 -188 140 -367 229 -603 301 -260 79 -489 109 -774
101 -232 -6 -363 -24 -1259 -173 l-637 -107 -458 186 c-780 316 -763 310 -904
282z m248 -514 c180 -72 202 -82 202 -92 0 -14 -111 -38 -389 -84 -176 -30
-156 -35 -266 68 l-70 65 30 13 c33 13 312 88 333 89 7 0 79 -27 160 -59z
m-2346 -357 c508 -336 652 -428 744 -471 l74 -35 262 42 c344 55 1933 324
2603 440 61 11 386 67 723 125 l612 105 325 0 c179 0 369 -5 423 -11 198 -21
483 -140 692 -289 127 -90 171 -113 375 -195 212 -85 308 -140 448 -259 106
-91 189 -229 210 -350 32 -186 -78 -403 -282 -560 -203 -156 -509 -268 -821
-301 -173 -18 -713 -60 -1035 -79 -449 -28 -425 -27 -425 -13 0 7 29 73 64
146 83 170 96 222 72 297 -46 145 -130 168 -621 168 -318 0 -504 -10 -845 -45
-512 -51 -978 -147 -1135 -233 -74 -40 -126 -106 -245 -312 l-85 -147 -275 6
c-583 14 -1093 85 -1361 188 -205 79 -358 233 -799 804 -196 254 -291 389
-277 396 7 4 57 9 112 13 157 10 233 36 295 98 91 91 79 191 -38 319 l-58 62
-169 -12 c-94 -7 -240 -19 -325 -27 -145 -14 -155 -13 -171 3 -24 26 -171 239
-203 294 l-27 47 33 5 c62 11 506 42 645 45 l83 2 402 -266z m4412 -1786 c-31
-46 -92 -128 -135 -183 -428 -547 -1447 -1514 -1669 -1583 -79 -25 -236 -36
-520 -37 -162 0 -303 3 -313 8 -17 6 -13 18 41 120 80 151 248 445 595 1042
160 275 291 501 292 502 0 1 50 15 110 32 394 106 955 176 1443 180 l214 1
-58 -82z"/>
<path d="M7205 4066 c-39 -18 -111 -93 -124 -129 -6 -16 -11 -56 -11 -91 0
-53 5 -69 31 -110 34 -50 133 -135 210 -180 144 -83 534 -110 660 -46 104 54
150 159 118 274 -13 47 -80 122 -122 135 -18 6 -113 14 -213 19 l-181 8 -69
39 c-131 74 -166 89 -217 92 -31 2 -64 -2 -82 -11z"/>
<path d="M6135 3786 c-179 -83 -215 -336 -67 -467 115 -101 304 -86 405 32 73
85 89 215 38 305 -34 59 -88 109 -145 135 -61 28 -167 25 -231 -5z"/>
<path d="M4990 3621 c-86 -28 -166 -91 -204 -161 -70 -129 -6 -313 136 -386
67 -34 115 -39 184 -19 48 14 69 28 124 83 79 79 106 142 97 224 -18 153 -210
300 -337 259z"/>
<path d="M3704 3401 c-220 -100 -224 -411 -6 -518 112 -55 239 -27 330 72 127
138 88 351 -79 434 -52 26 -73 31 -133 31 -48 0 -85 -7 -112 -19z"/>
</g>
</svg>
